<?xml version="1.0" encoding="UTF-8"?>
<svg xmlns="http://www.w3.org/2000/svg" width="142px" height="156px" style="shape-rendering:geometricPrecision; text-rendering:geometricPrecision; image-rendering:optimizeQuality; fill-rule:evenodd; clip-rule:evenodd"
viewBox="0 0 19.09 20.99">
  <style type="text/css">
    .str0 {stroke:#2B2A29;stroke-width:0.32;stroke-miterlimit:22.9256}
    .fil0 {fill:#fff}
  </style>
  <path class="fil0 str0" d="M12.24 15.79c0.19,-0.09 0.37,-0.2 0.55,-0.32 0.17,-0.11 0.36,-0.14 0.56,-0.08l4.03 1.18c0.3,0.09 0.62,-0.04 0.77,-0.31l0.69 -1.19c0.16,-0.28 0.11,-0.61 -0.11,-0.83l-3.04 -2.9c-0.15,-0.15 -0.22,-0.32 -0.21,-0.53 0,-0.1 0.01,-0.21 0.01,-0.31 0,-0.11 -0.01,-0.22 -0.01,-0.32 -0.01,-0.21 0.06,-0.38 0.21,-0.53l3.04 -2.9c0.22,-0.22 0.27,-0.55 0.11,-0.83l-0.69 -1.19c-0.15,-0.27 -0.47,-0.4 -0.77,-0.31l-4.03 1.18c-0.2,0.06 -0.39,0.03 -0.56,-0.08 -0.18,-0.12 -0.36,-0.23 -0.55,-0.32 -0.18,-0.09 -0.3,-0.25 -0.35,-0.44l-1 -4.09c-0.07,-0.3 -0.34,-0.51 -0.65,-0.51l-1.38 0c-0.32,0 -0.58,0.21 -0.66,0.51l-0.99 4.09c-0.05,0.19 -0.17,0.35 -0.35,0.44 -0.19,0.09 -0.38,0.2 -0.55,0.32 -0.17,0.11 -0.37,0.14 -0.56,0.08l-4.04 -1.18c-0.3,-0.09 -0.61,0.04 -0.77,0.31l-0.69 1.19c-0.16,0.28 -0.11,0.61 0.12,0.83l3.04 2.9c0.14,0.14 0.22,0.32 0.21,0.53 -0.01,0.1 -0.01,0.21 -0.01,0.32 0,0.1 0,0.21 0.01,0.31 0.01,0.21 -0.07,0.38 -0.21,0.53l-3.04 2.9c-0.23,0.22 -0.28,0.55 -0.12,0.83l0.69 1.19c0.16,0.27 0.47,0.4 0.77,0.31l4.04 -1.18c0.19,-0.06 0.39,-0.03 0.56,0.08 0.17,0.12 0.36,0.23 0.55,0.32 0.18,0.09 0.3,0.25 0.35,0.44l0.99 4.09c0.08,0.3 0.34,0.51 0.66,0.51l1.38 0c0.31,0 0.58,-0.21 0.65,-0.51l1 -4.09c0.05,-0.19 0.17,-0.35 0.35,-0.44zm-2.69 -2.62c1.47,0 2.67,-1.2 2.67,-2.67 0,-1.48 -1.2,-2.68 -2.67,-2.68 -1.48,0 -2.68,1.2 -2.68,2.68 0,1.47 1.2,2.67 2.68,2.67z"/>
</svg>
