<?xml version="1.0" encoding="UTF-8"?>
<svg xmlns="http://www.w3.org/2000/svg" width="218px" height="225px" style="shape-rendering:geometricPrecision; text-rendering:geometricPrecision; image-rendering:optimizeQuality; fill-rule:evenodd; clip-rule:evenodd"
viewBox="0 0 68.72 71">
  <style type="text/css">
    .str0 {stroke:#2B2A29;stroke-width:0.74;stroke-miterlimit:22.9256}
    .fil0 {fill:#fff}
  </style>
  <path class="fil0 str0" d="M40.92 58.88c0.64,-0.18 1.26,-0.38 1.88,-0.61 0.55,-0.21 1.12,-0.1 1.57,0.28l7.38 6.25c0.56,0.48 1.35,0.51 1.95,0.07l2.62 -1.9c0.6,-0.43 0.81,-1.19 0.53,-1.88l-3.67 -8.96c-0.22,-0.54 -0.14,-1.12 0.23,-1.58 0.4,-0.51 0.79,-1.04 1.15,-1.59 0.33,-0.49 0.85,-0.74 1.44,-0.7l9.65 0.73c0.74,0.05 1.39,-0.39 1.62,-1.09l1 -3.08c0.23,-0.7 -0.04,-1.45 -0.67,-1.84l-8.23 -5.08c-0.5,-0.31 -0.78,-0.83 -0.75,-1.41 0.02,-0.66 0.02,-1.32 0,-1.97 -0.03,-0.59 0.25,-1.1 0.75,-1.41l8.23 -5.09c0.63,-0.39 0.9,-1.13 0.67,-1.83l-1 -3.08c-0.23,-0.7 -0.88,-1.15 -1.62,-1.09l-9.65 0.72c-0.59,0.05 -1.11,-0.21 -1.43,-0.7 -0.37,-0.54 -0.76,-1.08 -1.16,-1.59 -0.37,-0.46 -0.45,-1.04 -0.23,-1.58l3.67 -8.96c0.28,-0.68 0.07,-1.44 -0.53,-1.88l-2.62 -1.9c-0.6,-0.43 -1.39,-0.4 -1.95,0.07l-7.38 6.26c-0.45,0.38 -1.02,0.48 -1.57,0.28 -0.62,-0.23 -1.24,-0.44 -1.88,-0.61 -0.56,-0.16 -0.97,-0.58 -1.11,-1.15l-2.29 -9.4c-0.18,-0.72 -0.8,-1.21 -1.54,-1.21l-3.24 0c-0.74,0 -1.36,0.49 -1.53,1.21l-2.3 9.4c-0.14,0.57 -0.54,0.99 -1.11,1.15 -0.63,0.17 -1.26,0.38 -1.87,0.61 -0.55,0.2 -1.13,0.1 -1.57,-0.28l-7.38 -6.26c-0.57,-0.47 -1.36,-0.5 -1.96,-0.07l-2.62 1.9c-0.59,0.44 -0.81,1.2 -0.53,1.88l3.67 8.96c0.22,0.54 0.14,1.12 -0.22,1.58 -0.41,0.52 -0.8,1.05 -1.16,1.59 -0.33,0.49 -0.85,0.75 -1.43,0.7l-9.65 -0.72c-0.74,-0.06 -1.4,0.38 -1.63,1.09l-1 3.08c-0.23,0.7 0.05,1.44 0.68,1.83l8.23 5.09c0.5,0.31 0.77,0.82 0.75,1.41 -0.03,0.65 -0.03,1.31 0,1.97 0.02,0.58 -0.25,1.1 -0.75,1.41l-8.23 5.08c-0.63,0.39 -0.91,1.14 -0.68,1.84l1 3.08c0.23,0.7 0.89,1.14 1.63,1.09l9.65 -0.73c0.58,-0.04 1.1,0.21 1.43,0.7 0.36,0.55 0.75,1.08 1.16,1.59 0.36,0.46 0.44,1.04 0.22,1.59l-3.67 8.95c-0.28,0.68 -0.06,1.45 0.53,1.88l2.62 1.9c0.6,0.44 1.39,0.41 1.96,-0.07l7.37 -6.25c0.45,-0.38 1.03,-0.48 1.58,-0.28 0.61,0.23 1.24,0.43 1.87,0.61 0.57,0.16 0.97,0.58 1.11,1.15l2.3 9.39c0.17,0.72 0.79,1.21 1.53,1.21l3.24 0c0.74,0 1.36,-0.49 1.54,-1.21l2.29 -9.39c0.14,-0.57 0.55,-0.99 1.11,-1.15zm-6.56 -11.62c6.49,0 11.76,-5.27 11.76,-11.76 0,-6.49 -5.27,-11.75 -11.76,-11.75 -6.49,0 -11.75,5.26 -11.75,11.75 0,6.49 5.26,11.76 11.75,11.76z"/>
</svg>
