<?xml version="1.0" encoding="UTF-8"?>
<!DOCTYPE svg PUBLIC "-//W3C//DTD SVG 1.1//EN" "http://www.w3.org/Graphics/SVG/1.1/DTD/svg11.dtd">
<!-- Creator: CorelDRAW 2018 (64-Bit) -->
<svg xmlns="http://www.w3.org/2000/svg" xml:space="preserve" width="32mm" height="19mm" version="1.1" style="shape-rendering:geometricPrecision; text-rendering:geometricPrecision; image-rendering:optimizeQuality; fill-rule:evenodd; clip-rule:evenodd"
viewBox="0 0 6585.99 3713.45"
 xmlns:xlink="http://www.w3.org/1999/xlink">
 <defs>
  <style type="text/css">
   <![CDATA[
    .str0 {stroke:#00215E;stroke-width:16.44;stroke-miterlimit:22.9256}
    .str1 {stroke:#00215E;stroke-width:16.44;stroke-miterlimit:22.9256}
    .fil0 {fill:#00215E}
    .fil1 {fill:#0066CC}
   ]]>
  </style>
 </defs>
 <g id="Слой_x0020_1">
  <metadata id="CorelCorpID_0Corel-Layer"/>
  <path class="fil0 str0" d="M8.22 2029.44l337.48 0c42.81,0 78.28,4.37 106.56,12.97 28.28,8.75 52.49,22.03 72.81,39.68 20.32,17.66 35.94,38.6 46.88,62.98 11.09,24.21 16.56,49.84 16.56,77.03 0,54.52 -20.94,100.3 -62.97,137.33 -42.03,36.88 -100,55.31 -173.9,55.31l-109.06 0 0 119.68c0,14.85 1.09,24.38 3.28,28.28 2.66,5.94 6.88,10.15 12.5,12.97 5.62,2.66 15.15,4.07 28.59,4.07l32.49 0 0 88.12 -311.23 0 0 -88.12 21.56 0c19.07,0 31.72,-1.41 37.81,-4.07 6.1,-2.81 10.62,-7.19 13.29,-13.12 2.81,-5.94 4.22,-18.28 4.22,-36.87l0 -351.24c0,-19.68 -1.25,-32.5 -3.75,-38.75 -2.34,-6.25 -6.25,-10.93 -11.72,-13.75 -5.31,-2.97 -15.46,-4.37 -30.62,-4.37l-30.78 0 0 -88.13zm234.36 104.06l0 181.87 54.69 0c33.28,0 57.8,-3.44 73.43,-10.31 15.62,-6.87 28.12,-17.5 37.65,-31.72 9.53,-14.21 14.21,-31.09 14.21,-50.78 0,-29.38 -11.25,-52.66 -33.91,-69.84 -16.87,-12.82 -41.87,-19.22 -74.84,-19.22l-71.25 0zm584.2 67.5l0 66.56c24.52,-25.78 45.78,-43.28 63.74,-52.5 17.82,-9.37 35.15,-14.06 51.72,-14.06 15,0 28.44,3.44 40.15,10.31 11.87,6.88 21.24,16.72 28.13,29.53 6.87,12.81 10.31,26.56 10.31,41.25 0,19.22 -6.4,36.56 -19.07,52.19 -12.65,15.46 -30.47,23.27 -53.43,23.27 -6.09,0 -11.56,-0.47 -16.41,-1.41 -4.69,-0.94 -14.68,-3.91 -29.99,-9.06 -7.97,-2.34 -14.54,-3.59 -19.69,-3.59 -7.97,0 -21.1,5 -39.53,15l0 178.44c0,15.15 1.09,24.99 3.44,29.52 2.19,4.69 5.94,7.97 10.94,10.15 5.15,2.04 16.25,3.13 33.27,3.13l19.85 0 0 88.12 -281.24 0 0 -88.12 23.44 0c16.87,0 27.34,-0.94 31.4,-2.81 4.23,-1.73 7.35,-5.01 9.38,-9.53 2.19,-4.54 3.28,-14.69 3.28,-30.47l0 -209.37 -67.5 0 0 -87.97c49.68,-3.12 101.25,-15.94 154.83,-38.59l42.97 0zm1610.55 -171.56l55.31 213.9 -85.31 24.22c-28.44,-50.94 -60.62,-88.13 -96.56,-111.71 -36.09,-23.6 -74.37,-35.47 -114.99,-35.47 -26.24,0 -46.87,5.31 -62.03,16.09 -15.15,10.62 -22.65,22.5 -22.65,35.62 0,15 6.87,28.91 20.62,41.72 13.44,12.97 38.12,24.38 74.21,34.53l122.66 35.62c67.97,19.53 116.4,45.47 145.46,77.66 28.59,32.65 42.97,70.47 42.97,113.74 0,55.15 -22.03,101.71 -65.94,139.84 -49.06,42.03 -110.15,62.96 -182.96,62.96 -33.91,0 -65,-4.22 -93.43,-12.65 -28.28,-8.59 -57.97,-22.97 -88.75,-43.43l-20.16 45.78 -68.11 0 -45 -247.49 85.31 -20.62c20.15,50.46 51.4,92.65 93.9,126.4 42.65,33.91 89.38,50.78 140.15,50.78 22.97,0 41.88,-2.97 57.03,-8.76 15,-5.78 26.41,-13.9 34.06,-24.37 7.65,-10.32 11.4,-21.1 11.4,-32.19 0,-18.28 -8.75,-34.06 -26.4,-47.19 -17.97,-13.28 -49.38,-26.24 -94.06,-39.06l-106.56 -31.09c-16.25,-4.53 -38.12,-13.12 -65.62,-25.77 -27.66,-12.66 -48.91,-25.94 -63.75,-39.53 -14.68,-13.75 -27.03,-31.41 -36.72,-52.81 -9.84,-21.56 -14.68,-44.06 -14.68,-67.81 0,-33.91 9.37,-65 28.13,-93.44 18.74,-28.59 47.03,-51.56 84.68,-69.21 37.65,-17.66 79.21,-26.56 124.99,-26.56 55.16,0 105,14.06 149.53,42.34l17.81 -32.03 65.47 0zm1009.02 181.87l0 96.56 -74.06 0 0 224.21c0,17.97 0.78,28.91 2.19,32.5 2.19,5.16 5.62,9.07 10.47,11.56 4.69,2.35 14.69,3.6 29.69,3.6l25.16 0 0 88.12 -281.24 0 0 -88.12 22.35 0c18.28,0 29.37,-0.94 33.28,-2.81 3.91,-1.73 6.87,-5.01 8.9,-9.85 2.03,-4.69 2.97,-16.4 2.97,-35l0 -224.21 -67.5 0 0 -96.56 67.5 0 0 -47.65c0,-34.06 5.94,-61.41 17.81,-82.18 14.07,-25.31 36.72,-46.1 67.82,-61.87 31.24,-15.94 68.43,-23.91 111.86,-23.91 45.79,0 81.72,9.69 107.66,29.06 25.93,19.37 38.9,40.78 38.9,64.37 0,18.59 -5.94,33.75 -17.66,45.46 -11.72,11.72 -27.34,17.66 -46.56,17.66 -7.65,0 -15,-1.09 -22.19,-3.44 -7.19,-2.34 -14.06,-5.79 -20.46,-10.32 -4.54,-3.12 -12.35,-10.62 -23.44,-22.96 -10.31,-11.26 -17.5,-17.97 -21.1,-20.16 -4.53,-2.66 -8.9,-4.06 -12.81,-4.06 -10.47,0 -18.59,4.84 -24.69,14.53 -5.94,9.53 -8.9,28.91 -8.9,57.66l0 47.81 74.06 0zm271.71 -156.55l0 156.55 147.18 0 0 97.5 -147.18 0 0 159.22c0,35.93 1.87,59.05 5.78,69.21 3.75,10.32 10.78,18.44 21.25,24.53 13.59,8.28 29.37,12.35 47.03,12.35 31.41,0 62.66,-10.16 93.75,-30.62l0 97.97c-26.56,12.5 -50.63,21.24 -72.03,26.4 -21.56,5 -44.84,7.5 -69.84,7.5 -28.44,0 -53.6,-3.59 -75.31,-10.78 -21.88,-7.19 -40.47,-17.34 -55.94,-30.62 -15.31,-13.28 -26.09,-27.34 -32.03,-42.34 -5.94,-15 -8.9,-36.56 -8.9,-65l0 -217.8 -67.5 0 0 -88.12c24.38,-7.97 45.15,-19.22 62.5,-33.91 17.18,-14.85 31.09,-32.5 41.72,-53.13 10.47,-20.78 17.65,-47.03 21.56,-78.9l87.97 0zm541.69 -25.31l311.24 0 0 88.13 -28.59 0c-15.78,0 -26.56,1.56 -32.33,4.84 -5.78,3.12 -9.85,7.81 -12.35,13.75 -2.34,5.94 -3.59,18.91 -3.59,38.75l0 111.4 233.43 0 0 -119.68c0,-14.69 -0.94,-24.53 -2.66,-29.84 -2.49,-7.34 -6.56,-12.34 -12.18,-15.15 -5.78,-2.66 -18.43,-4.06 -38.12,-4.06l-23.9 0 0 -88.13 311.23 0 0 88.13 -26.09 0c-17.65,0 -29.37,1.41 -35.15,4.37 -5.78,2.81 -9.84,7.19 -12.18,12.81 -2.34,5.62 -3.44,19.07 -3.44,40l0 346.39c0,21.41 1.41,35.15 4.37,41.4 2.81,6.26 7.34,10.63 13.29,13.29 5.94,2.66 19.53,3.91 40.93,3.91l18.28 0 0 88.12 -311.23 0 0 -88.12 20.31 0c19.07,0 31.87,-1.56 38.75,-4.54 6.72,-3.12 11.4,-7.5 13.91,-13.43 2.66,-5.78 3.91,-19.38 3.91,-40.78l0 -135.31 -233.43 0 0 135.31c0,21.4 0.94,34.69 2.66,40 3.12,7.65 7.81,12.66 14.22,15.15 6.25,2.35 19.21,3.6 38.59,3.6l21.4 0 0 88.12 -311.24 0 0 -88.12 21.25 0c17.66,0 30.16,-1.56 37.19,-4.54 7.03,-3.12 11.87,-7.33 14.54,-12.81 2.65,-5.62 3.91,-17.65 3.91,-36.25l0 -347.17c0,-21.71 -1.26,-35.77 -3.91,-42.34 -2.66,-6.56 -6.73,-11.4 -12.19,-14.53 -5.47,-2.97 -16.25,-4.53 -32.19,-4.53l-28.59 0 0 -88.13zm760.13 181.87l213.74 -3.75 0 296.09c0,21.09 1.25,34.99 3.91,42.03 2.66,7.03 7.34,12.65 14.38,17.18 6.87,4.37 15.62,6.56 26.09,6.56 15.31,0 31.55,-3.59 48.9,-10.93 6.72,-2.97 24.69,-13.75 53.9,-32.19l0 -178.43c0,-15.46 -1.25,-26.25 -3.75,-32.03 -2.34,-5.78 -5.94,-10 -10.47,-12.5 -4.53,-2.66 -13.43,-3.91 -26.72,-3.91l-26.56 0 0 -88.13 213.74 -3.75 0 326.56c0,17.03 0.94,27.65 2.97,32.18 1.87,4.38 5.01,7.5 9.38,9.54 4.37,2.03 14.84,2.97 31.25,2.97l23.9 0 0 89.05 -199.67 5.62 0 -54.37c-26.88,19.68 -53.91,34.37 -81.1,44.21 -27.18,9.84 -54.52,14.84 -82.03,14.84 -22.03,0 -42.18,-3.59 -60.78,-10.78 -18.43,-7.19 -33.91,-16.71 -46.4,-28.74 -12.65,-12.04 -21.87,-26.09 -27.97,-42.19 -6.09,-16.25 -9.22,-36.87 -9.22,-62.19l0 -188.27c0,-17.35 -0.94,-28.28 -2.97,-32.81 -2.03,-4.69 -5.31,-7.97 -9.84,-10.31 -4.69,-2.34 -14.38,-3.44 -29.38,-3.44l-25.31 0 0 -88.13zm807.31 -215.62l0 247.49c25.31,-15.78 47.81,-26.72 67.5,-32.81 19.53,-6.25 39.37,-9.37 59.05,-9.37 51.88,0 94.69,18.9 128.59,56.56 39.22,43.75 58.91,102.18 58.91,175.14 0,73.91 -19.85,133.28 -59.38,178.12 -39.53,44.85 -87.34,67.34 -143.59,67.34 -22.81,0 -44.85,-3.75 -65.94,-11.4 -21.1,-7.65 -42.97,-20.15 -65.94,-37.81l-24.69 38.9 -100.77 0 0 -544.66 -67.5 0 0 -88.13c60.46,-4.37 116.71,-17.5 168.59,-39.37l45.15 0zm0 346.86l0 138.28c0,27.97 2.19,47.18 6.56,57.66 4.53,10.47 12.18,19.06 23.28,26.09 11.09,7.04 24.21,10.47 39.06,10.47 25.31,0 45.31,-10.32 60.31,-30.94 18.9,-25.78 28.27,-61.41 28.27,-106.87 0,-42.81 -8.12,-75.93 -24.22,-99.22 -13.12,-18.91 -30.3,-28.28 -51.56,-28.28 -11.87,0 -24.53,2.66 -38.12,8.12 -13.59,5.47 -28.13,13.75 -43.59,24.69z"/>
  <path class="fil1 str1" d="M6411.76 2881.44c55.28,0 100.1,-44.81 100.1,-100.1 0,-55.28 -44.81,-100.1 -100.1,-100.1 -55.28,0 -100.1,44.81 -100.1,100.1 0,55.28 44.81,100.1 100.1,100.1zm-3382.56 684.18l3241.83 -696.2c29.36,46.8 81.4,77.93 140.73,77.93 91.69,0 166.01,-74.32 166.01,-166.01 0,-71.62 -45.35,-132.64 -108.89,-155.92l-570.09 -1401.65c17.02,-25.86 36.33,-73.1 21.56,-137.72 -14.77,-64.61 -88.05,-123.12 -158.01,-123.12 -69.96,0 -94.21,28.48 -124.29,62.91l-2014.22 -853.57c0,-90.61 -73.45,-164.06 -164.06,-164.06 -90.6,0 -166.37,73.48 -164.05,164.06l0 0.14 -1452.23 544.56c-29.53,-43.26 -62.1,-71.67 -135.57,-71.67 -73.47,0 -164.06,89.34 -164.06,164.06 0,74.72 30.97,110.41 77.49,139.37l-347.94 1240.35c-35.39,3.96 -67.65,13.72 -96.77,29.22 -39.06,20.78 -68.9,48.43 -89.52,82.81 -20.63,34.37 -30.94,75.46 -30.94,123.12 0,72.65 22.65,130.3 67.81,172.96 46.71,44.68 109.53,67.02 188.58,67.02 11.57,0 22.78,-0.49 33.66,-1.48l1361.62 840.55c-2.88,12.16 -4.4,-13.94 -4.4,37.88 0,51.81 73.45,164.05 164.06,164.05 81.16,0 148.56,-69.32 161.72,-139.61zm3298.45 -927.42c-39.34,23.18 -68.3,62.1 -78.19,108.1l-3246.9 697.28c-15.94,-21.4 -37.65,-37.4 -63.04,-49.84l-40.06 -736.01c46.64,-9.53 85.95,-29.56 117.85,-60.07 46.41,-44.38 69.53,-102.18 69.53,-173.43 0,-47.03 -10.47,-88.28 -31.41,-123.44 -20.93,-35 -50.62,-62.8 -89.52,-83.12 -19.86,-10.49 -41.49,-18.27 -64.88,-23.37l26.05 -336.77c75.37,-14.82 132.23,-91.04 132.23,-160.96 0,-69.92 -32.35,-112.68 -80.59,-141.25l506.7 -1221.01c38.96,-6.13 73.37,-25.97 98.13,-54.42l2014.04 853.8c0,90.61 112.2,164.06 164.06,164.06 51.86,0 25.87,-1.55 38.09,-4.46l527.91 1344.89zm-2956.15 -2327.61c-12.71,-8.12 -24.22,-17.96 -34.22,-29.19l-1466.8 550.03c-9.54,70.97 -64.46,127.56 -134.61,139.62l-344.61 1225.4c19.94,5.04 38.54,12.11 55.82,21.24 38.9,20.32 68.59,48.12 89.53,83.12 20.93,35.15 31.4,76.41 31.4,123.44 0,71.25 -23.12,129.05 -69.52,173.43 -7.58,7.24 -15.59,13.89 -24,19.96l1296.99 790.5c15.12,-10.93 32.17,-19.35 50.55,-24.63l-40.57 -722.53c-56.05,-7.69 -102.23,-28.94 -138.65,-63.77 -45.16,-42.66 -67.81,-100.31 -67.81,-172.96 0,-47.66 10.31,-88.75 30.94,-123.12 20.62,-34.37 50.46,-62.03 89.52,-82.81 26.6,-14.16 55.82,-23.52 87.63,-28.06l27.62 -353.04c-47.64,-28.71 -79.51,-71.02 -79.51,-140.62 0,-69.59 56.57,-145.81 131.65,-160.84l508.64 -1225.16zm-2058.48 1976.78c-17.5,0 -33.91,5.15 -49.21,15.46 -15.32,10.32 -27.19,25.47 -35.62,45.62 -8.44,20 -12.66,45.47 -12.66,76.57 0,31.87 4.07,58.27 12.35,79.21 8.28,20.93 19.85,36.56 34.37,46.56 14.53,10 30.47,15 47.96,15 27.03,0 50.16,-11.26 69.53,-33.91 19.22,-22.66 28.91,-57.81 28.91,-105.62 0,-46.1 -8.9,-80.78 -26.88,-104.06 -17.96,-23.28 -40.93,-34.84 -68.75,-34.84zm1518.84 0c-17.5,0 -33.91,5.15 -49.21,15.46 -15.32,10.32 -27.19,25.47 -35.62,45.62 -8.44,20 -12.66,45.47 -12.66,76.57 0,31.87 4.07,58.27 12.34,79.21 8.29,20.93 19.85,36.56 34.38,46.56 14.53,10 30.47,15 47.96,15 27.03,0 50.15,-11.26 69.53,-33.91 19.21,-22.66 28.91,-57.81 28.91,-105.62 0,-46.1 -8.91,-80.78 -26.88,-104.06 -17.97,-23.28 -40.93,-34.84 -68.75,-34.84zm35.62 1156.52c53.73,0 97.28,43.56 97.28,97.28 0,53.72 -43.55,97.28 -97.28,97.28 -53.73,0 -97.28,-43.56 -97.28,-97.28 0,-53.73 43.56,-97.28 97.28,-97.28zm-1159.58 -2731.79c53.73,0 97.28,43.55 97.28,97.28 0,53.73 -43.55,97.28 -97.28,97.28 -53.73,0 -97.28,-43.55 -97.28,-97.28 0,-53.73 43.56,-97.28 97.28,-97.28zm1187.36 887.22c53.73,0 97.28,43.55 97.28,97.28 0,53.73 -43.55,97.28 -97.28,97.28 -53.73,0 -97.28,-43.55 -97.28,-97.28 0,-53.73 43.55,-97.28 97.28,-97.28zm564.49 -1524.32c53.73,0 97.28,43.56 97.28,97.28 0,53.73 -43.56,97.28 -97.28,97.28 -53.72,0 -97.28,-43.55 -97.28,-97.28 0,-53.73 43.56,-97.28 97.28,-97.28zm2301.9 961.44c53.73,0 97.28,43.55 97.28,97.28 0,53.73 -43.55,97.28 -97.28,97.28 -53.73,0 -97.28,-43.55 -97.28,-97.28 0,-53.73 43.55,-97.28 97.28,-97.28z"/>
 </g>
</svg>
