<?xml version="1.0" encoding="UTF-8"?><svg xmlns="http://www.w3.org/2000/svg" width="40px" height="40px" style="shape-rendering:geometricPrecision; text-rendering:geometricPrecision; image-rendering:optimizeQuality; fill-rule:evenodd; clip-rule:evenodd"
     viewBox="0 0 8266.64 8273.78">
 <defs>
  <style type="text/css">
   .str0 {stroke:#2B2A29;stroke-width:15.14;stroke-miterlimit:22.9256}
   .fil0 {fill:#ffffff}
  </style>
 </defs>
  <g id="Слой_x0020_1">
    <path class="fil0 str0" d="M1976.97 441.73c90.77,-27.85 156.78,-112.32 156.78,-212.22 0,-122.58 -99.37,-221.94 -221.95,-221.94 -122.58,0 -221.94,99.36 -221.94,221.94 0,99.9 65.99,184.37 156.76,212.22l0 260.75 -110.63 0 0 522.08 351.61 0 0 -522.08 -110.63 0 0 -260.75zm-65.17 -67.78c79.77,0 144.44,-64.66 144.44,-144.44 0,-79.77 -64.67,-144.43 -144.44,-144.43 -79.77,0 -144.43,64.66 -144.43,144.43 0,79.78 64.66,144.44 144.43,144.44z"/>
    <path class="fil0 str0" d="M2610.6 441.73c90.77,-27.85 156.77,-112.32 156.77,-212.22 0,-122.58 -99.36,-221.94 -221.94,-221.94 -122.58,0 -221.95,99.36 -221.95,221.94 0,99.9 66,184.37 156.77,212.22l0 260.75 -110.63 0 0 522.08 351.61 0 0 -522.08 -110.63 0 0 -260.75zm-65.17 -67.78c79.77,0 144.43,-64.66 144.43,-144.44 0,-79.77 -64.66,-144.43 -144.43,-144.43 -79.77,0 -144.44,64.66 -144.44,144.43 0,79.78 64.67,144.44 144.44,144.44z"/>
    <path class="fil0 str0" d="M3244.22 441.73c90.77,-27.85 156.78,-112.32 156.78,-212.22 0,-122.58 -99.37,-221.94 -221.95,-221.94 -122.58,0 -221.94,99.36 -221.94,221.94 0,99.9 65.99,184.37 156.76,212.22l0 260.75 -110.63 0 0 522.08 351.61 0 0 -522.08 -110.63 0 0 -260.75zm-65.17 -67.78c79.77,0 144.44,-64.66 144.44,-144.44 0,-79.77 -64.67,-144.43 -144.44,-144.43 -79.77,0 -144.43,64.66 -144.43,144.43 0,79.78 64.66,144.44 144.43,144.44z"/>
    <path class="fil0 str0" d="M3877.85 441.73c90.77,-27.85 156.77,-112.32 156.77,-212.22 0,-122.58 -99.36,-221.94 -221.94,-221.94 -122.58,0 -221.95,99.36 -221.95,221.94 0,99.9 66,184.37 156.77,212.22l0 260.75 -110.63 0 0 522.08 351.61 0 0 -522.08 -110.63 0 0 -260.75zm-65.17 -67.78c79.77,0 144.43,-64.66 144.43,-144.44 0,-79.77 -64.66,-144.43 -144.43,-144.43 -79.78,0 -144.44,64.66 -144.44,144.43 0,79.78 64.66,144.44 144.44,144.44z"/>
    <path class="fil0 str0" d="M4511.47 441.73c90.77,-27.85 156.78,-112.32 156.78,-212.22 0,-122.58 -99.37,-221.94 -221.95,-221.94 -122.58,0 -221.94,99.36 -221.94,221.94 0,99.9 65.99,184.37 156.76,212.22l0 260.75 -110.63 0 0 522.08 351.61 0 0 -522.08 -110.63 0 0 -260.75zm-65.17 -67.78c79.77,0 144.44,-64.66 144.44,-144.44 0,-79.77 -64.67,-144.43 -144.44,-144.43 -79.77,0 -144.44,64.66 -144.44,144.43 0,79.78 64.67,144.44 144.44,144.44z"/>
    <path class="fil0 str0" d="M5145.1 441.73c90.77,-27.85 156.77,-112.32 156.77,-212.22 0,-122.58 -99.37,-221.94 -221.94,-221.94 -122.58,0 -221.95,99.36 -221.95,221.94 0,99.9 66,184.37 156.77,212.22l0 260.75 -110.63 0 0 522.08 351.61 0 0 -522.08 -110.63 0 0 -260.75zm-65.17 -67.78c79.77,0 144.43,-64.66 144.43,-144.44 0,-79.77 -64.66,-144.43 -144.43,-144.43 -79.78,0 -144.44,64.66 -144.44,144.43 0,79.78 64.66,144.44 144.44,144.44z"/>
    <path class="fil0 str0" d="M5778.72 441.73c90.77,-27.85 156.78,-112.32 156.78,-212.22 0,-122.58 -99.37,-221.94 -221.95,-221.94 -122.58,0 -221.95,99.36 -221.95,221.94 0,99.9 66,184.37 156.77,212.22l0 260.75 -110.63 0 0 522.08 351.61 0 0 -522.08 -110.63 0 0 -260.75zm-65.17 -67.78c79.77,0 144.44,-64.66 144.44,-144.44 0,-79.77 -64.67,-144.43 -144.44,-144.43 -79.77,0 -144.44,64.66 -144.44,144.43 0,79.78 64.67,144.44 144.44,144.44z"/>
    <path class="fil0 str0" d="M6412.35 441.73c90.77,-27.85 156.77,-112.32 156.77,-212.22 0,-122.58 -99.37,-221.94 -221.95,-221.94 -122.57,0 -221.94,99.36 -221.94,221.94 0,99.9 66,184.37 156.77,212.22l0 260.75 -110.63 0 0 522.08 351.61 0 0 -522.08 -110.63 0 0 -260.75zm-65.18 -67.78c79.78,0 144.44,-64.66 144.44,-144.44 0,-79.77 -64.66,-144.43 -144.44,-144.43 -79.77,0 -144.43,64.66 -144.43,144.43 0,79.78 64.66,144.44 144.43,144.44z"/>
    <path class="fil0 str0" d="M1976.97 7832.06c90.77,27.84 156.78,112.31 156.78,212.21 0,122.58 -99.37,221.94 -221.95,221.94 -122.58,0 -221.94,-99.36 -221.94,-221.94 0,-99.9 65.99,-184.37 156.76,-212.21l0 -260.76 -110.63 0 0 -522.08 351.61 0 0 522.08 -110.63 0 0 260.76zm-65.17 67.77c79.77,0 144.44,64.67 144.44,144.44 0,79.77 -64.67,144.43 -144.44,144.43 -79.77,0 -144.43,-64.66 -144.43,-144.43 0,-79.77 64.66,-144.44 144.43,-144.44z"/>
    <path class="fil0 str0" d="M2610.6 7832.06c90.77,27.84 156.77,112.31 156.77,212.21 0,122.58 -99.36,221.94 -221.94,221.94 -122.58,0 -221.95,-99.36 -221.95,-221.94 0,-99.9 66,-184.37 156.77,-212.21l0 -260.76 -110.63 0 0 -522.08 351.61 0 0 522.08 -110.63 0 0 260.76zm-65.17 67.77c79.77,0 144.43,64.67 144.43,144.44 0,79.77 -64.66,144.43 -144.43,144.43 -79.77,0 -144.44,-64.66 -144.44,-144.43 0,-79.77 64.67,-144.44 144.44,-144.44z"/>
    <path class="fil0 str0" d="M3244.22 7832.06c90.77,27.84 156.78,112.31 156.78,212.21 0,122.58 -99.37,221.94 -221.95,221.94 -122.58,0 -221.94,-99.36 -221.94,-221.94 0,-99.9 65.99,-184.37 156.76,-212.21l0 -260.76 -110.63 0 0 -522.08 351.61 0 0 522.08 -110.63 0 0 260.76zm-65.17 67.77c79.77,0 144.44,64.67 144.44,144.44 0,79.77 -64.67,144.43 -144.44,144.43 -79.77,0 -144.43,-64.66 -144.43,-144.43 0,-79.77 64.66,-144.44 144.43,-144.44z"/>
    <path class="fil0 str0" d="M3877.85 7832.06c90.77,27.84 156.77,112.31 156.77,212.21 0,122.58 -99.36,221.94 -221.94,221.94 -122.58,0 -221.95,-99.36 -221.95,-221.94 0,-99.9 66,-184.37 156.77,-212.21l0 -260.76 -110.63 0 0 -522.08 351.61 0 0 522.08 -110.63 0 0 260.76zm-65.17 67.77c79.77,0 144.43,64.67 144.43,144.44 0,79.77 -64.66,144.43 -144.43,144.43 -79.78,0 -144.44,-64.66 -144.44,-144.43 0,-79.77 64.66,-144.44 144.44,-144.44z"/>
    <path class="fil0 str0" d="M4511.47 7832.06c90.77,27.84 156.78,112.31 156.78,212.21 0,122.58 -99.37,221.94 -221.95,221.94 -122.58,0 -221.94,-99.36 -221.94,-221.94 0,-99.9 65.99,-184.37 156.76,-212.21l0 -260.76 -110.63 0 0 -522.08 351.61 0 0 522.08 -110.63 0 0 260.76zm-65.17 67.77c79.77,0 144.44,64.67 144.44,144.44 0,79.77 -64.67,144.43 -144.44,144.43 -79.77,0 -144.44,-64.66 -144.44,-144.43 0,-79.77 64.67,-144.44 144.44,-144.44z"/>
    <path class="fil0 str0" d="M5145.1 7832.06c90.77,27.84 156.77,112.31 156.77,212.21 0,122.58 -99.37,221.94 -221.94,221.94 -122.58,0 -221.95,-99.36 -221.95,-221.94 0,-99.9 66,-184.37 156.77,-212.21l0 -260.76 -110.63 0 0 -522.08 351.61 0 0 522.08 -110.63 0 0 260.76zm-65.17 67.77c79.77,0 144.43,64.67 144.43,144.44 0,79.77 -64.66,144.43 -144.43,144.43 -79.78,0 -144.44,-64.66 -144.44,-144.43 0,-79.77 64.66,-144.44 144.44,-144.44z"/>
    <path class="fil0 str0" d="M5778.72 7832.06c90.77,27.84 156.78,112.31 156.78,212.21 0,122.58 -99.37,221.94 -221.95,221.94 -122.58,0 -221.95,-99.36 -221.95,-221.94 0,-99.9 66,-184.37 156.77,-212.21l0 -260.76 -110.63 0 0 -522.08 351.61 0 0 522.08 -110.63 0 0 260.76zm-65.17 67.77c79.77,0 144.44,64.67 144.44,144.44 0,79.77 -64.67,144.43 -144.44,144.43 -79.77,0 -144.44,-64.66 -144.44,-144.43 0,-79.77 64.67,-144.44 144.44,-144.44z"/>
    <path class="fil0 str0" d="M6412.35 7832.06c90.77,27.84 156.77,112.31 156.77,212.21 0,122.58 -99.37,221.94 -221.95,221.94 -122.57,0 -221.94,-99.36 -221.94,-221.94 0,-99.9 66,-184.37 156.77,-212.21l0 -260.76 -110.63 0 0 -522.08 351.61 0 0 522.08 -110.63 0 0 260.76zm-65.18 67.77c79.78,0 144.44,64.67 144.44,144.44 0,79.77 -64.66,144.43 -144.44,144.43 -79.77,0 -144.43,-64.66 -144.43,-144.43 0,-79.77 64.66,-144.44 144.43,-144.44z"/>
    <path class="fil0 str0" d="M7824.92 6288.33c27.84,-90.77 112.31,-156.77 212.21,-156.77 122.58,0 221.95,99.36 221.95,221.94 0,122.58 -99.37,221.95 -221.95,221.95 -99.9,0 -184.37,-66 -212.21,-156.77l-260.76 0 0 110.63 -522.08 0 0 -351.61 522.08 0 0 110.63 260.76 0zm67.77 65.17c0,-79.77 64.67,-144.43 144.44,-144.43 79.77,0 144.44,64.66 144.44,144.43 0,79.77 -64.67,144.44 -144.44,144.44 -79.77,0 -144.44,-64.67 -144.44,-144.44z"/>
    <path class="fil0 str0" d="M7824.92 5654.71c27.84,-90.77 112.31,-156.78 212.21,-156.78 122.58,0 221.95,99.37 221.95,221.95 0,122.58 -99.37,221.94 -221.95,221.94 -99.9,0 -184.37,-65.99 -212.21,-156.76l-260.76 0 0 110.63 -522.08 0 0 -351.61 522.08 0 0 110.63 260.76 0zm67.77 65.17c0,-79.77 64.67,-144.44 144.44,-144.44 79.77,0 144.44,64.67 144.44,144.44 0,79.77 -64.67,144.43 -144.44,144.43 -79.77,0 -144.44,-64.66 -144.44,-144.43z"/>
    <path class="fil0 str0" d="M7824.92 5021.08c27.84,-90.77 112.31,-156.77 212.21,-156.77 122.58,0 221.95,99.36 221.95,221.94 0,122.58 -99.37,221.95 -221.95,221.95 -99.9,0 -184.37,-66 -212.21,-156.77l-260.76 0 0 110.63 -522.08 0 0 -351.61 522.08 0 0 110.63 260.76 0zm67.77 65.17c0,-79.77 64.67,-144.43 144.44,-144.43 79.77,0 144.44,64.66 144.44,144.43 0,79.77 -64.67,144.44 -144.44,144.44 -79.77,0 -144.44,-64.67 -144.44,-144.44z"/>
    <path class="fil0 str0" d="M7824.92 4387.46c27.84,-90.77 112.31,-156.78 212.21,-156.78 122.58,0 221.95,99.37 221.95,221.95 0,122.58 -99.37,221.94 -221.95,221.94 -99.9,0 -184.37,-65.99 -212.21,-156.76l-260.76 0 0 110.63 -522.08 0 0 -351.61 522.08 0 0 110.63 260.76 0zm67.77 65.17c0,-79.77 64.67,-144.44 144.44,-144.44 79.77,0 144.44,64.67 144.44,144.44 0,79.77 -64.67,144.43 -144.44,144.43 -79.77,0 -144.44,-64.66 -144.44,-144.43z"/>
    <path class="fil0 str0" d="M7824.92 3753.83c27.84,-90.77 112.31,-156.77 212.21,-156.77 122.58,0 221.95,99.36 221.95,221.94 0,122.58 -99.37,221.95 -221.95,221.95 -99.9,0 -184.37,-66 -212.21,-156.77l-260.76 0 0 110.63 -522.08 0 0 -351.61 522.08 0 0 110.63 260.76 0zm67.77 65.17c0,-79.77 64.67,-144.43 144.44,-144.43 79.77,0 144.44,64.66 144.44,144.43 0,79.78 -64.67,144.44 -144.44,144.44 -79.77,0 -144.44,-64.66 -144.44,-144.44z"/>
    <path class="fil0 str0" d="M7824.92 3120.21c27.84,-90.77 112.31,-156.78 212.21,-156.78 122.58,0 221.95,99.37 221.95,221.95 0,122.58 -99.37,221.94 -221.95,221.94 -99.9,0 -184.37,-65.99 -212.21,-156.76l-260.76 0 0 110.63 -522.08 0 0 -351.61 522.08 0 0 110.63 260.76 0zm67.77 65.17c0,-79.77 64.67,-144.44 144.44,-144.44 79.77,0 144.44,64.67 144.44,144.44 0,79.77 -64.67,144.44 -144.44,144.44 -79.77,0 -144.44,-64.67 -144.44,-144.44z"/>
    <path class="fil0 str0" d="M7824.92 2486.58c27.84,-90.77 112.31,-156.77 212.21,-156.77 122.58,0 221.95,99.37 221.95,221.94 0,122.58 -99.37,221.95 -221.95,221.95 -99.9,0 -184.37,-66 -212.21,-156.77l-260.76 0 0 110.63 -522.08 0 0 -351.61 522.08 0 0 110.63 260.76 0zm67.77 65.17c0,-79.77 64.67,-144.43 144.44,-144.43 79.77,0 144.44,64.66 144.44,144.43 0,79.78 -64.67,144.44 -144.44,144.44 -79.77,0 -144.44,-64.66 -144.44,-144.44z"/>
    <path class="fil0 str0" d="M7824.92 1852.96c27.84,-90.77 112.31,-156.78 212.21,-156.78 122.58,0 221.95,99.37 221.95,221.95 0,122.58 -99.37,221.95 -221.95,221.95 -99.9,0 -184.37,-66 -212.21,-156.77l-260.76 0 0 110.63 -522.08 0 0 -351.61 522.08 0 0 110.63 260.76 0zm67.77 65.17c0,-79.77 64.67,-144.44 144.44,-144.44 79.77,0 144.44,64.67 144.44,144.44 0,79.77 -64.67,144.44 -144.44,144.44 -79.77,0 -144.44,-64.67 -144.44,-144.44z"/>
    <path class="fil0 str0" d="M441.73 6288.33c-27.85,-90.77 -112.32,-156.77 -212.22,-156.77 -122.58,0 -221.94,99.36 -221.94,221.94 0,122.58 99.36,221.95 221.94,221.95 99.9,0 184.37,-66 212.22,-156.77l260.75 0 0 110.63 522.08 0 0 -351.61 -522.08 0 0 110.63 -260.75 0zm-67.78 65.17c0,-79.77 -64.66,-144.43 -144.44,-144.43 -79.77,0 -144.43,64.66 -144.43,144.43 0,79.77 64.66,144.44 144.43,144.44 79.78,0 144.44,-64.67 144.44,-144.44z"/>
    <path class="fil0 str0" d="M441.73 5654.71c-27.85,-90.77 -112.32,-156.78 -212.22,-156.78 -122.58,0 -221.94,99.37 -221.94,221.95 0,122.58 99.36,221.94 221.94,221.94 99.9,0 184.37,-65.99 212.22,-156.76l260.75 0 0 110.63 522.08 0 0 -351.61 -522.08 0 0 110.63 -260.75 0zm-67.78 65.17c0,-79.77 -64.66,-144.44 -144.44,-144.44 -79.77,0 -144.43,64.67 -144.43,144.44 0,79.77 64.66,144.43 144.43,144.43 79.78,0 144.44,-64.66 144.44,-144.43z"/>
    <path class="fil0 str0" d="M441.73 5021.08c-27.85,-90.77 -112.32,-156.77 -212.22,-156.77 -122.58,0 -221.94,99.36 -221.94,221.94 0,122.58 99.36,221.95 221.94,221.95 99.9,0 184.37,-66 212.22,-156.77l260.75 0 0 110.63 522.08 0 0 -351.61 -522.08 0 0 110.63 -260.75 0zm-67.78 65.17c0,-79.77 -64.66,-144.43 -144.44,-144.43 -79.77,0 -144.43,64.66 -144.43,144.43 0,79.77 64.66,144.44 144.43,144.44 79.78,0 144.44,-64.67 144.44,-144.44z"/>
    <path class="fil0 str0" d="M441.73 4387.46c-27.85,-90.77 -112.32,-156.78 -212.22,-156.78 -122.58,0 -221.94,99.37 -221.94,221.95 0,122.58 99.36,221.94 221.94,221.94 99.9,0 184.37,-65.99 212.22,-156.76l260.75 0 0 110.63 522.08 0 0 -351.61 -522.08 0 0 110.63 -260.75 0zm-67.78 65.17c0,-79.77 -64.66,-144.44 -144.44,-144.44 -79.77,0 -144.43,64.67 -144.43,144.44 0,79.77 64.66,144.43 144.43,144.43 79.78,0 144.44,-64.66 144.44,-144.43z"/>
    <path class="fil0 str0" d="M441.73 3753.83c-27.85,-90.77 -112.32,-156.77 -212.22,-156.77 -122.58,0 -221.94,99.36 -221.94,221.94 0,122.58 99.36,221.95 221.94,221.95 99.9,0 184.37,-66 212.22,-156.77l260.75 0 0 110.63 522.08 0 0 -351.61 -522.08 0 0 110.63 -260.75 0zm-67.78 65.17c0,-79.77 -64.66,-144.43 -144.44,-144.43 -79.77,0 -144.43,64.66 -144.43,144.43 0,79.78 64.66,144.44 144.43,144.44 79.78,0 144.44,-64.66 144.44,-144.44z"/>
    <path class="fil0 str0" d="M441.73 3120.21c-27.85,-90.77 -112.32,-156.78 -212.22,-156.78 -122.58,0 -221.94,99.37 -221.94,221.95 0,122.58 99.36,221.94 221.94,221.94 99.9,0 184.37,-65.99 212.22,-156.76l260.75 0 0 110.63 522.08 0 0 -351.61 -522.08 0 0 110.63 -260.75 0zm-67.78 65.17c0,-79.77 -64.66,-144.44 -144.44,-144.44 -79.77,0 -144.43,64.67 -144.43,144.44 0,79.77 64.66,144.44 144.43,144.44 79.78,0 144.44,-64.67 144.44,-144.44z"/>
    <path class="fil0 str0" d="M441.73 2486.58c-27.85,-90.77 -112.32,-156.77 -212.22,-156.77 -122.58,0 -221.94,99.37 -221.94,221.94 0,122.58 99.36,221.95 221.94,221.95 99.9,0 184.37,-66 212.22,-156.77l260.75 0 0 110.63 522.08 0 0 -351.61 -522.08 0 0 110.63 -260.75 0zm-67.78 65.17c0,-79.77 -64.66,-144.43 -144.44,-144.43 -79.77,0 -144.43,64.66 -144.43,144.43 0,79.78 64.66,144.44 144.43,144.44 79.78,0 144.44,-64.66 144.44,-144.44z"/>
    <path class="fil0 str0" d="M441.73 1852.96c-27.85,-90.77 -112.32,-156.78 -212.22,-156.78 -122.58,0 -221.94,99.37 -221.94,221.95 0,122.58 99.36,221.95 221.94,221.95 99.9,0 184.37,-66 212.22,-156.77l260.75 0 0 110.63 522.08 0 0 -351.61 -522.08 0 0 110.63 -260.75 0zm-67.78 65.17c0,-79.77 -64.66,-144.44 -144.44,-144.44 -79.77,0 -144.43,64.67 -144.43,144.44 0,79.77 64.66,144.44 144.43,144.44 79.78,0 144.44,-64.67 144.44,-144.44z"/>
    <path class="fil0 str0" d="M1619.55 1363.07l5026.32 0c141.06,0 256.47,115.41 256.47,256.47l0 5027.56c0,141.06 -115.41,256.46 -256.47,256.46l-5026.32 0c-141.06,0 -256.47,-115.4 -256.47,-256.46l0 -5027.56c0,-141.06 115.41,-256.47 256.47,-256.47zm358.79 2883.53l221.34 0c28.08,0 51.34,2.87 69.89,8.51 18.55,5.73 34.43,14.45 47.76,26.02 13.33,11.58 23.57,25.32 30.74,41.31 7.28,15.87 10.86,32.68 10.86,50.51 0,35.76 -13.73,65.79 -41.3,90.08 -27.56,24.19 -65.58,36.27 -114.05,36.27l-71.53 0 0 78.5c0,9.74 0.72,15.99 2.15,18.55 1.75,3.89 4.52,6.66 8.2,8.51 3.68,1.74 9.94,2.66 18.75,2.66l21.31 0 0 57.8 -204.13 0 0 -57.8 14.14 0c12.51,0 20.8,-0.92 24.8,-2.66 4,-1.85 6.96,-4.72 8.72,-8.61 1.84,-3.9 2.76,-11.98 2.76,-24.18l0 -230.37c0,-12.91 -0.82,-21.32 -2.45,-25.41 -1.54,-4.1 -4.1,-7.17 -7.69,-9.01 -3.49,-1.95 -10.14,-2.87 -20.09,-2.87l-20.18 0 0 -57.81 0 0zm4199.88 558.79c36.26,0 65.65,-29.38 65.65,-65.64 0,-36.26 -29.39,-65.65 -65.65,-65.65 -36.26,0 -65.65,29.39 -65.65,65.65 0,36.26 29.39,65.64 65.65,65.64zm-2218.01 448.63l2125.7 -456.5c19.26,30.69 53.39,51.11 92.31,51.11 60.14,0 108.87,-48.75 108.87,-108.88 0,-46.97 -29.75,-87 -71.42,-102.26l-373.9 -919.3c11.16,-16.96 23.82,-47.94 14.14,-90.33 -9.69,-42.37 -57.75,-80.75 -103.63,-80.75 -45.89,0 -61.79,18.68 -81.52,41.27l-1321.06 -559.83c0,-59.42 -48.18,-107.6 -107.6,-107.6 -59.42,0 -109.12,48.2 -107.6,107.6l0 0.09 -952.47 357.17c-19.36,-28.38 -40.72,-47.01 -88.92,-47.01 -48.18,0 -107.6,58.6 -107.6,107.6 0,49.01 20.31,72.42 50.82,91.41l-228.19 813.51c-23.22,2.59 -44.37,9 -63.47,19.16 -25.62,13.63 -45.19,31.76 -58.72,54.31 -13.52,22.55 -20.29,49.49 -20.29,80.75 0,47.65 14.86,85.46 44.47,113.44 30.64,29.31 71.84,43.95 123.69,43.95 7.59,0 14.94,-0.31 22.07,-0.97l893.04 551.29c-1.88,7.98 -2.88,-9.14 -2.88,24.85 0,33.98 48.17,107.59 107.6,107.59 53.06,0 97.14,-45.14 105.98,-91.08 0.12,-0.57 0,-0.46 0.58,-0.59zm2162.84 -608.15c-25.8,15.19 -44.8,40.72 -51.28,70.9l-2129.54 457.31c-10.46,-14.03 -24.69,-24.52 -41.34,-32.68l-26.28 -482.73c30.59,-6.24 56.37,-19.38 77.29,-39.39 30.44,-29.11 45.6,-67.02 45.6,-113.76 0,-30.84 -6.87,-57.89 -20.6,-80.95 -13.73,-22.95 -33.21,-41.19 -58.72,-54.51 -13.02,-6.88 -27.22,-11.98 -42.56,-15.34l17.09 -220.87c49.43,-9.72 86.73,-59.71 86.73,-105.57 0,-45.86 -21.21,-73.9 -52.85,-92.64l332.33 -800.82c25.55,-4.02 48.12,-17.03 64.36,-35.69l1320.94 559.97c0,59.43 73.59,107.61 107.6,107.61 34.02,0 16.97,-1.02 24.98,-2.93l346.24 882.07 0.01 0.02zm-1938.84 -1526.6c-8.34,-5.33 -15.88,-11.79 -22.45,-19.15l-962.02 360.75c-6.26,46.55 -42.27,83.66 -88.29,91.57l-226.02 803.7c13.08,3.31 25.28,7.94 36.62,13.92 25.51,13.33 44.99,31.56 58.72,54.52 13.72,23.05 20.59,50.12 20.59,80.96 0,46.73 -15.16,84.64 -45.59,113.75 -4.98,4.75 -10.23,9.1 -15.75,13.09l850.65 518.46c9.93,-7.17 21.11,-12.69 33.16,-16.16l-26.61 -473.88c-36.76,-5.04 -67.05,-18.98 -90.93,-41.82 -29.62,-27.99 -44.48,-65.8 -44.48,-113.45 0,-31.26 6.77,-58.21 20.3,-80.75 13.52,-22.54 33.09,-40.68 58.71,-54.31 17.45,-9.28 36.62,-15.42 57.48,-18.4l18.12 -231.55c-31.25,-18.83 -52.15,-46.57 -52.15,-92.22 0,-45.64 37.1,-95.63 86.34,-105.49l333.6 -803.54 0 0zm-1350.09 1296.5c-11.48,0 -22.24,3.38 -32.28,10.13 -10.04,6.77 -17.83,16.72 -23.36,29.93 -5.54,13.12 -8.31,29.82 -8.31,50.22 0,20.89 2.67,38.22 8.1,51.95 5.43,13.73 13.02,23.98 22.55,30.54 9.53,6.55 19.98,9.83 31.45,9.83 17.74,0 32.9,-7.39 45.6,-22.24 12.61,-14.86 18.96,-37.92 18.96,-69.27 0,-30.24 -5.83,-52.99 -17.63,-68.26 -11.78,-15.26 -26.84,-22.85 -45.09,-22.85l0.01 0.02zm996.16 0c-11.48,0 -22.24,3.38 -32.28,10.13 -10.04,6.77 -17.83,16.72 -23.36,29.93 -5.54,13.12 -8.31,29.82 -8.31,50.22 0,20.89 2.67,38.22 8.1,51.95 5.43,13.73 13.01,23.98 22.55,30.54 9.53,6.55 19.98,9.83 31.45,9.83 17.74,0 32.9,-7.39 45.6,-22.24 12.61,-14.86 18.96,-37.92 18.96,-69.27 0,-30.24 -5.84,-52.99 -17.62,-68.26 -11.8,-15.26 -26.85,-22.85 -45.1,-22.85l0.01 0.02zm23.36 758.52c35.24,0 63.8,28.57 63.8,63.8 0,35.23 -28.56,63.8 -63.8,63.8 -35.24,0 -63.81,-28.57 -63.81,-63.8 0,-35.24 28.58,-63.8 63.81,-63.8zm-760.53 -1791.68c35.24,0 63.8,28.55 63.8,63.79 0,35.24 -28.56,63.8 -63.8,63.8 -35.24,0 -63.8,-28.56 -63.8,-63.8 0,-35.24 28.57,-63.79 63.8,-63.79zm778.74 581.89c35.24,0 63.81,28.56 63.81,63.8 0,35.23 -28.57,63.8 -63.81,63.8 -35.23,0 -63.79,-28.57 -63.79,-63.8 0,-35.24 28.56,-63.8 63.79,-63.8zm370.24 -999.75c35.24,0 63.8,28.56 63.8,63.8 0,35.23 -28.57,63.8 -63.8,63.8 -35.23,0 -63.8,-28.57 -63.8,-63.8 0,-35.24 28.57,-63.8 63.8,-63.8zm1509.74 630.58c35.24,0 63.8,28.56 63.8,63.8 0,35.23 -28.56,63.79 -63.8,63.79 -35.24,0 -63.8,-28.56 -63.8,-63.79 0,-35.24 28.56,-63.8 63.8,-63.8zm-3619.78 719.52l0 119.28 35.87 0c21.83,0 37.91,-2.25 48.17,-6.77 10.24,-4.5 18.43,-11.47 24.68,-20.79 6.26,-9.32 9.32,-20.4 9.32,-33.31 0,-19.27 -7.37,-34.54 -22.24,-45.81 -11.07,-8.41 -27.46,-12.61 -49.08,-12.61l-46.73 0 0.01 0.01zm383.16 44.27l0 43.65c16.08,-16.9 30.02,-28.38 41.8,-34.43 11.7,-6.15 23.06,-9.22 33.93,-9.22 9.84,0 18.65,2.26 26.33,6.76 7.79,4.52 13.93,10.97 18.46,19.37 4.5,8.4 6.76,17.42 6.76,27.05 0,12.61 -4.2,23.98 -12.52,34.23 -8.29,10.14 -19.98,15.26 -35.04,15.26 -3.99,0 -7.58,-0.31 -10.76,-0.93 -3.07,-0.61 -9.63,-2.56 -19.67,-5.94 -5.22,-1.53 -9.54,-2.35 -12.91,-2.35 -5.23,0 -13.84,3.27 -25.93,9.83l0 117.03c0,9.94 0.72,16.39 2.25,19.37 1.43,3.07 3.9,5.22 7.18,6.66 3.37,1.33 10.66,2.05 21.82,2.05l13.02 0 0 57.79 -184.45 0 0 -57.79 15.37 0c11.06,0 17.93,-0.61 20.59,-1.85 2.78,-1.13 4.82,-3.28 6.15,-6.24 1.43,-2.98 2.15,-9.64 2.15,-19.99l0 -137.31 -44.26 0 0 -57.7c32.58,-2.04 66.4,-10.46 101.54,-25.31l28.19 0 0 0.01zm1056.31 -112.52l36.28 140.29 -55.96 15.88c-18.65,-33.4 -39.75,-57.8 -63.33,-73.27 -23.67,-15.47 -48.78,-23.25 -75.42,-23.25 -17.21,0 -30.74,3.48 -40.68,10.55 -9.94,6.96 -14.86,14.76 -14.86,23.36 0,9.83 4.51,18.96 13.53,27.37 8.81,8.51 25,15.98 48.66,22.64l80.46 23.37c44.58,12.8 76.34,29.82 95.4,50.93 18.75,21.41 28.18,46.22 28.18,74.61 0,36.17 -14.45,66.7 -43.24,91.71 -32.18,27.56 -72.24,41.29 -119.99,41.29 -22.25,0 -42.64,-2.77 -61.29,-8.3 -18.55,-5.63 -38.01,-15.06 -58.21,-28.49l-13.22 30.03 -44.67 0 -29.51 -162.32 55.96 -13.53c13.22,33.1 33.72,60.77 61.58,82.91 27.98,22.24 58.63,33.31 91.92,33.31 15.07,0 27.48,-1.96 37.41,-5.76 9.83,-3.79 17.32,-9.12 22.34,-15.98 5.01,-6.77 7.48,-13.84 7.48,-21.11 0,-11.99 -5.73,-22.34 -17.31,-30.95 -11.8,-8.71 -32.39,-17.22 -61.69,-25.62l-69.89 -20.39c-10.67,-2.97 -25.01,-8.61 -43.04,-16.9 -18.15,-8.31 -32.09,-17.01 -41.82,-25.93 -9.63,-9.01 -17.73,-20.6 -24.08,-34.63 -6.45,-14.14 -9.63,-28.9 -9.63,-44.47 0,-22.25 6.15,-42.63 18.45,-61.28 12.29,-18.76 30.84,-33.82 55.54,-45.4 24.7,-11.58 51.96,-17.42 81.98,-17.42 36.18,0 68.87,9.22 98.07,27.77l11.68 -21.01 42.94 0 -0.02 -0.01zm661.78 119.28l0 63.33 -48.57 0 0 147.05c0,11.79 0.51,18.96 1.44,21.32 1.43,3.38 3.68,5.95 6.86,7.58 3.07,1.54 9.63,2.36 19.47,2.36l16.5 0 0 57.8 -184.46 0 0 -57.8 14.67 0c11.98,0 19.26,-0.62 21.83,-1.84 2.56,-1.14 4.5,-3.29 5.83,-6.47 1.34,-3.07 1.95,-10.75 1.95,-22.95l0 -147.05 -44.27 0 0 -63.33 44.27 0 0 -31.25c0,-22.34 3.9,-40.27 11.69,-53.9 9.22,-16.6 24.07,-30.23 44.48,-40.58 20.48,-10.45 44.87,-15.68 73.36,-15.68 30.04,0 53.6,6.36 70.61,19.06 17.01,12.7 25.51,26.75 25.51,42.22 0,12.19 -3.89,22.14 -11.58,29.81 -7.69,7.69 -17.93,11.59 -30.54,11.59 -5.01,0 -9.83,-0.72 -14.55,-2.25 -4.71,-1.54 -9.22,-3.8 -13.42,-6.77 -2.97,-2.04 -8.1,-6.97 -15.37,-15.06 -6.77,-7.39 -11.48,-11.79 -13.83,-13.22 -2.98,-1.75 -5.85,-2.67 -8.41,-2.67 -6.87,0 -12.19,3.18 -16.19,9.53 -3.9,6.25 -5.85,18.96 -5.85,37.81l0 31.36 48.58 0 -0.01 0zm178.21 -102.67l0 102.68 96.53 0 0 63.94 -96.53 0 0 104.42c0,23.57 1.22,38.73 3.78,45.4 2.46,6.77 7.07,12.09 13.94,16.09 8.92,5.43 19.27,8.1 30.85,8.1 20.6,0 41.1,-6.67 61.48,-20.08l0 64.25c-17.41,8.19 -33.2,13.93 -47.23,17.31 -14.14,3.28 -29.41,4.92 -45.81,4.92 -18.65,0 -35.16,-2.36 -49.4,-7.06 -14.34,-4.73 -26.53,-11.38 -36.68,-20.09 -10.04,-8.7 -17.11,-17.92 -21.01,-27.77 -3.9,-9.83 -5.84,-23.98 -5.84,-42.63l0 -142.85 -44.27 0 0 -57.79c15.99,-5.23 29.61,-12.6 40.99,-22.24 11.27,-9.74 20.4,-21.32 27.37,-34.84 6.87,-13.64 11.58,-30.85 14.13,-51.76l57.7 0 0 0zm355.28 -16.6l204.13 0 0 57.8 -18.75 0c-10.35,0 -17.42,1.03 -21.21,3.18 -3.78,2.04 -6.45,5.12 -8.1,9.01 -1.53,3.9 -2.35,12.4 -2.35,25.42l0 73.06 153.1 0 0 -78.49c0,-9.64 -0.62,-16.09 -1.74,-19.58 -1.64,-4.81 -4.31,-8.09 -7.99,-9.94 -3.79,-1.74 -12.09,-2.66 -25.01,-2.66l-15.67 0 0 -57.8 204.12 0 0 57.8 -17.1 0c-11.58,0 -19.26,0.93 -23.06,2.87 -3.79,1.84 -6.45,4.72 -7.98,8.4 -1.54,3.69 -2.26,12.51 -2.26,26.23l0 227.19c0,14.04 0.93,23.05 2.87,27.16 1.85,4.1 4.82,6.97 8.72,8.71 3.9,1.75 12.81,2.57 26.85,2.57l11.98 0 0 57.79 -204.12 0 0 -57.79 13.32 0c12.51,0 20.89,-1.02 25.41,-2.97 4.41,-2.05 7.48,-4.92 9.12,-8.81 1.75,-3.8 2.57,-12.71 2.57,-26.75l0 -88.74 -153.1 0 0 88.74c0,14.04 0.61,22.75 1.74,26.23 2.05,5.02 5.13,8.3 9.33,9.94 4.1,1.54 12.61,2.36 25.31,2.36l14.04 0 0 57.79 -204.13 0 0 -57.79 13.94 0c11.58,0 19.77,-1.02 24.39,-2.97 4.61,-2.05 7.79,-4.81 9.54,-8.41 1.74,-3.68 2.57,-11.58 2.57,-23.77l0 -227.7c0,-14.23 -0.83,-23.46 -2.57,-27.76 -1.74,-4.31 -4.42,-7.48 -8,-9.53 -3.58,-1.95 -10.66,-2.97 -21.1,-2.97l-18.76 0 0 -57.81 -0.05 -0.01zm498.54 119.28l140.18 -2.46 0 194.2c0,13.83 0.82,22.94 2.57,27.56 1.75,4.61 4.82,8.3 9.43,11.27 4.51,2.87 10.25,4.31 17.11,4.31 10.05,0 20.69,-2.37 32.08,-7.17 4.4,-1.95 16.19,-9.02 35.34,-21.11l0 -117.03c0,-10.14 -0.82,-17.22 -2.45,-21 -1.54,-3.8 -3.91,-6.57 -6.87,-8.2 -2.98,-1.75 -8.81,-2.57 -17.53,-2.57l-17.42 0 0 -57.8 140.19 -2.46 0 214.18c0,11.17 0.61,18.13 1.94,21.1 1.23,2.88 3.29,4.92 6.16,6.26 2.86,1.33 9.73,1.95 20.49,1.95l15.67 0 0 58.4 -130.95 3.69 0 -35.66c-17.64,12.91 -35.36,22.54 -53.19,28.99 -17.83,6.46 -35.76,9.74 -53.81,9.74 -14.45,0 -27.66,-2.36 -39.86,-7.07 -12.09,-4.72 -22.24,-10.96 -30.43,-18.86 -8.3,-7.89 -14.35,-17.1 -18.35,-27.67 -4,-10.66 -6.04,-24.18 -6.04,-40.78l0 -123.48c0,-11.39 -0.62,-18.55 -1.95,-21.53 -1.33,-3.07 -3.48,-5.22 -6.45,-6.76 -3.07,-1.53 -9.43,-2.25 -19.28,-2.25l-16.59 0 0 -57.8 0.01 0.01zm529.48 -141.42l0 162.32c16.61,-10.35 31.36,-17.52 44.27,-21.52 12.81,-4.1 25.82,-6.14 38.73,-6.14 34.03,0 62.1,12.39 84.34,37.09 25.72,28.69 38.63,67.02 38.63,114.87 0,48.48 -13.02,87.41 -38.95,116.82 -25.92,29.42 -57.27,44.17 -94.17,44.17 -14.96,0 -29.41,-2.46 -43.25,-7.48 -13.83,-5.01 -28.18,-13.22 -43.24,-24.8l-16.19 25.52 -66.09 0 0 -357.23 -44.28 0 0 -57.8c39.66,-2.87 76.55,-11.48 110.58,-25.82l29.62 0 0 0zm0 227.5l0 90.69c0,18.34 1.44,30.94 4.31,37.81 2.97,6.87 7.98,12.5 15.26,17.11 7.28,4.62 15.88,6.87 25.62,6.87 16.61,0 29.72,-6.76 39.56,-20.29 12.4,-16.91 18.55,-40.27 18.55,-70.09 0,-28.08 -5.33,-49.8 -15.89,-65.07 -8.6,-12.41 -19.87,-18.55 -33.81,-18.55 -7.79,0 -16.1,1.74 -25.01,5.32 -8.91,3.59 -18.45,9.02 -28.59,16.2z"/>
 </g>
</svg>
