<?xml version="1.0" encoding="UTF-8"?>
<!DOCTYPE svg PUBLIC "-//W3C//DTD SVG 1.1//EN" "http://www.w3.org/Graphics/SVG/1.1/DTD/svg11.dtd">
<!-- Creator: CorelDRAW 2018 (64-Bit) -->
<svg xmlns="http://www.w3.org/2000/svg" xml:space="preserve" width="192px" height="192px" version="1.1" style="shape-rendering:geometricPrecision; text-rendering:geometricPrecision; image-rendering:optimizeQuality; fill-rule:evenodd; clip-rule:evenodd"
viewBox="0 0 30.26 30.26"
 xmlns:xlink="http://www.w3.org/1999/xlink">
 <defs>
  <style type="text/css">
   <![CDATA[
    .str0 {stroke:#2B2A29;stroke-width:0.37;stroke-miterlimit:22.9256}
    .fil0 {fill:#fff}
   ]]>
  </style>
 </defs>
 <g id="Слой_x0020_1">
  <metadata id="CorelCorpID_0Corel-Layer"/>
  <path class="fil0 str0" d="M18.36 24.21c0.31,-0.11 0.61,-0.23 0.91,-0.38 0.25,-0.11 0.52,-0.1 0.75,0.04l4.13 2.51c0.32,0.19 0.71,0.15 0.97,-0.11l1.15 -1.15c0.26,-0.26 0.3,-0.65 0.11,-0.97l-2.51 -4.13c-0.14,-0.23 -0.15,-0.5 -0.04,-0.75 0.15,-0.3 0.27,-0.6 0.38,-0.91 0.1,-0.26 0.29,-0.44 0.56,-0.51l4.7 -1.14c0.36,-0.09 0.6,-0.4 0.6,-0.77l0 -1.62c0,-0.37 -0.24,-0.68 -0.6,-0.77l-4.7 -1.14c-0.27,-0.07 -0.46,-0.25 -0.56,-0.51 -0.11,-0.31 -0.23,-0.62 -0.38,-0.91 -0.11,-0.25 -0.1,-0.52 0.04,-0.75l2.51 -4.14c0.19,-0.31 0.15,-0.7 -0.11,-0.97l-1.15 -1.14c-0.26,-0.26 -0.65,-0.31 -0.97,-0.12l-4.13 2.52c-0.23,0.14 -0.5,0.15 -0.75,0.03 -0.3,-0.14 -0.6,-0.27 -0.91,-0.38 -0.26,-0.09 -0.44,-0.29 -0.51,-0.55l-1.14 -4.7c-0.09,-0.36 -0.4,-0.6 -0.77,-0.6l-1.74 0c-0.38,0.02 -0.52,0.12 -0.65,0.59l-1.25 5.13 0 0c-0.45,0.14 -0.89,0.31 -1.31,0.51 -0.25,0.12 -0.52,0.11 -0.75,-0.03l-4.14 -2.52c-0.31,-0.19 -0.7,-0.14 -0.97,0.12l-1.14 1.14c-0.26,0.27 -0.31,0.66 -0.12,0.97l2.52 4.14c0.14,0.23 0.15,0.5 0.03,0.75 -0.14,0.29 -0.27,0.6 -0.38,0.91 -0.09,0.26 -0.29,0.44 -0.55,0.51l-4.7 1.14c-0.36,0.09 -0.6,0.4 -0.6,0.77l0 1.62c0,0.37 0.24,0.68 0.6,0.77l4.7 1.14c0.26,0.07 0.46,0.25 0.55,0.51 0.11,0.31 0.24,0.61 0.38,0.91 0.12,0.25 0.11,0.52 -0.03,0.75l-2.52 4.13c-0.19,0.32 -0.14,0.71 0.12,0.97l1.14 1.15c0.27,0.26 0.66,0.3 0.97,0.11l4.14 -2.51c0.23,-0.14 0.5,-0.15 0.75,-0.04 0.29,0.15 0.6,0.27 0.91,0.38 0.26,0.1 0.44,0.29 0.51,0.56l1.14 4.7c0.09,0.36 0.4,0.6 0.77,0.6l1.62 0c0.37,0 0.68,-0.24 0.77,-0.6l1.14 -4.7c0.07,-0.27 0.25,-0.46 0.51,-0.56zm-3.23 -2.52c3.62,0 6.56,-2.94 6.56,-6.56 0,-3.63 -2.94,-6.56 -6.56,-6.56 -3.63,0 -6.56,2.93 -6.56,6.56 0,3.62 2.93,6.56 6.56,6.56z"/>
 </g>
</svg>
