<?xml version="1.0" encoding="UTF-8"?>
<svg xmlns="http://www.w3.org/2000/svg" width="192px" height="192px" style="shape-rendering:geometricPrecision; text-rendering:geometricPrecision; image-rendering:optimizeQuality; fill-rule:evenodd; clip-rule:evenodd"
viewBox="0 0 36.62 36.62">
  <style type="text/css">
    .str0 {stroke:#2B2A29;stroke-width:0.45;stroke-miterlimit:22.9256}
    .fil0 {fill:#fff}
  </style>
  <path class="fil0 str0" d="M22.21 29.3c0.38,-0.13 0.75,-0.29 1.11,-0.46 0.3,-0.14 0.62,-0.12 0.91,0.05l5 3.04c0.38,0.23 0.86,0.17 1.17,-0.14l1.39 -1.39c0.31,-0.31 0.37,-0.79 0.14,-1.17l-3.04 -5c-0.17,-0.28 -0.19,-0.61 -0.05,-0.91 0.18,-0.36 0.33,-0.73 0.46,-1.11 0.11,-0.31 0.36,-0.53 0.68,-0.61l5.68 -1.38c0.44,-0.11 0.73,-0.49 0.73,-0.93l0 -1.96c0,-0.45 -0.29,-0.82 -0.73,-0.93l-5.68 -1.39c-0.33,-0.08 -0.57,-0.29 -0.68,-0.61 -0.13,-0.37 -0.29,-0.74 -0.46,-1.1 -0.14,-0.3 -0.12,-0.63 0.05,-0.91l3.04 -5c0.23,-0.38 0.17,-0.86 -0.14,-1.18l-1.39 -1.38c-0.31,-0.32 -0.79,-0.37 -1.17,-0.14l-5 3.04c-0.29,0.17 -0.61,0.19 -0.91,0.04 -0.36,-0.17 -0.73,-0.32 -1.11,-0.46 -0.31,-0.11 -0.53,-0.35 -0.61,-0.67l-1.38 -5.68c-0.11,-0.44 -0.49,-0.73 -0.93,-0.73l-2.1 0c-0.46,0.02 -0.63,0.14 -0.79,0.72l-1.51 6.2 0 0c-0.55,0.17 -1.08,0.38 -1.59,0.62 -0.3,0.15 -0.63,0.13 -0.91,-0.04l-5 -3.04c-0.38,-0.23 -0.86,-0.18 -1.18,0.14l-1.38 1.38c-0.32,0.32 -0.37,0.8 -0.14,1.18l3.04 5c0.17,0.28 0.19,0.61 0.04,0.91 -0.17,0.36 -0.32,0.73 -0.46,1.1 -0.11,0.32 -0.35,0.53 -0.67,0.61l-5.68 1.39c-0.44,0.11 -0.73,0.48 -0.73,0.93l0 1.96c0,0.44 0.29,0.82 0.73,0.93l5.68 1.38c0.32,0.08 0.56,0.3 0.67,0.61 0.14,0.38 0.29,0.75 0.46,1.11 0.15,0.3 0.13,0.62 -0.04,0.91l-3.04 5c-0.23,0.38 -0.18,0.86 0.14,1.17l1.38 1.39c0.32,0.31 0.8,0.37 1.18,0.14l5 -3.04c0.28,-0.17 0.61,-0.19 0.91,-0.05 0.36,0.18 0.73,0.33 1.1,0.46 0.32,0.11 0.53,0.36 0.61,0.68l1.39 5.68c0.11,0.44 0.48,0.73 0.93,0.73l1.96 0c0.44,0 0.82,-0.29 0.93,-0.73l1.38 -5.68c0.08,-0.32 0.3,-0.57 0.61,-0.68zm-3.9 -6.21c2.64,0 4.78,-2.14 4.78,-4.78 0,-2.64 -2.14,-4.79 -4.78,-4.79 -2.64,0 -4.79,2.15 -4.79,4.79 0,2.64 2.15,4.78 4.79,4.78z"/>
</svg>
