<?xml version="1.0" encoding="UTF-8"?>
<!DOCTYPE svg PUBLIC "-//W3C//DTD SVG 1.1//EN" "http://www.w3.org/Graphics/SVG/1.1/DTD/svg11.dtd">
<!-- Creator: CorelDRAW 2018 (64-Bit) -->
<svg xmlns="http://www.w3.org/2000/svg" xml:space="preserve" width="218px" height="225px" version="1.1" style="shape-rendering:geometricPrecision; text-rendering:geometricPrecision; image-rendering:optimizeQuality; fill-rule:evenodd; clip-rule:evenodd"
viewBox="0 0 57.15 59.04"
 xmlns:xlink="http://www.w3.org/1999/xlink">
 <defs>
  <style type="text/css">
   <![CDATA[
    .str0 {stroke:#2B2A29;stroke-width:0.62;stroke-miterlimit:22.9256}
    .fil0 {fill:#fff}
   ]]>
  </style>
 </defs>
 <g id="Слой_x0020_1">
  <metadata id="CorelCorpID_0Corel-Layer"/>
  <path class="fil0 str0" d="M34.03 48.96c0.53,-0.15 1.05,-0.32 1.56,-0.51 0.45,-0.17 0.93,-0.08 1.31,0.23l6.13 5.21c0.47,0.39 1.13,0.42 1.63,0.06l2.17 -1.59c0.5,-0.36 0.68,-0.99 0.45,-1.56l-3.05 -7.45c-0.19,-0.45 -0.12,-0.93 0.18,-1.31 0.34,-0.43 0.66,-0.87 0.96,-1.33 0.27,-0.4 0.71,-0.61 1.2,-0.58l8.02 0.6c0.61,0.05 1.16,-0.32 1.35,-0.9l0.83 -2.56c0.19,-0.58 -0.03,-1.2 -0.56,-1.53l-6.84 -4.23c-0.42,-0.25 -0.65,-0.68 -0.63,-1.17 0.03,-0.54 0.02,-1.09 0,-1.64 -0.02,-0.48 0.21,-0.91 0.63,-1.17l6.84 -4.23c0.53,-0.32 0.75,-0.94 0.56,-1.52l-0.83 -2.56c-0.19,-0.59 -0.74,-0.96 -1.35,-0.91l-8.02 0.6c-0.49,0.04 -0.92,-0.17 -1.2,-0.58 -0.3,-0.45 -0.62,-0.9 -0.96,-1.32 -0.3,-0.39 -0.37,-0.87 -0.18,-1.32l3.05 -7.45c0.23,-0.56 0.05,-1.2 -0.45,-1.56l-2.17 -1.58c-0.5,-0.36 -1.16,-0.34 -1.63,0.06l-6.13 5.2c-0.38,0.32 -0.85,0.4 -1.31,0.23 -0.51,-0.19 -1.03,-0.36 -1.56,-0.51 -0.47,-0.13 -0.81,-0.48 -0.92,-0.95l-1.91 -7.82c-0.15,-0.59 -0.67,-1 -1.28,-1l-2.69 0c-0.62,0 -1.13,0.41 -1.28,1l-1.91 7.82c-0.11,0.47 -0.45,0.82 -0.92,0.95 -0.53,0.15 -1.05,0.32 -1.56,0.51 -0.46,0.17 -0.93,0.09 -1.31,-0.23l-6.13 -5.2c-0.47,-0.4 -1.13,-0.42 -1.63,-0.06l-2.18 1.58c-0.49,0.36 -0.67,0.99 -0.44,1.56l3.05 7.45c0.19,0.45 0.12,0.93 -0.18,1.32 -0.34,0.42 -0.66,0.87 -0.96,1.32 -0.28,0.41 -0.71,0.62 -1.2,0.58l-8.02 -0.6c-0.62,-0.05 -1.16,0.32 -1.35,0.91l-0.83 2.56c-0.19,0.58 0.03,1.2 0.56,1.52l6.84 4.23c0.42,0.26 0.64,0.69 0.63,1.17 -0.03,0.55 -0.03,1.1 0,1.64 0.01,0.49 -0.21,0.92 -0.63,1.17l-6.84 4.23c-0.53,0.33 -0.75,0.95 -0.56,1.53l0.83 2.56c0.19,0.58 0.73,0.95 1.35,0.9l8.02 -0.6c0.49,-0.03 0.92,0.18 1.19,0.58 0.31,0.46 0.63,0.9 0.97,1.33 0.3,0.38 0.37,0.86 0.18,1.31l-3.05 7.45c-0.23,0.57 -0.05,1.2 0.44,1.56l2.18 1.59c0.5,0.36 1.16,0.33 1.63,-0.06l6.13 -5.2c0.37,-0.32 0.85,-0.4 1.31,-0.23 0.51,0.18 1.03,0.35 1.56,0.5 0.47,0.13 0.81,0.48 0.92,0.96l1.91 7.81c0.15,0.6 0.66,1 1.28,1l2.69 0c0.61,0 1.13,-0.4 1.28,-1l1.91 -7.81c0.11,-0.48 0.45,-0.83 0.92,-0.96zm-5.46 -6.34c7.24,0 13.11,-5.86 13.11,-13.1 0,-7.23 -5.87,-13.1 -13.11,-13.1 -7.23,0 -13.1,5.87 -13.1,13.1 0,7.24 5.87,13.1 13.1,13.1z"/>
 </g>
</svg>
