<?xml version="1.0" encoding="UTF-8"?>
<!DOCTYPE svg PUBLIC "-//W3C//DTD SVG 1.1//EN" "http://www.w3.org/Graphics/SVG/1.1/DTD/svg11.dtd">
<!-- Creator: CorelDRAW 2018 (64-Bit) -->
<svg xmlns="http://www.w3.org/2000/svg" xml:space="preserve" width="142px" height="156px" version="1.1" style="shape-rendering:geometricPrecision; text-rendering:geometricPrecision; image-rendering:optimizeQuality; fill-rule:evenodd; clip-rule:evenodd"
viewBox="0 0 18.37 20.19"
 xmlns:xlink="http://www.w3.org/1999/xlink">
 <defs>
  <style type="text/css">
   <![CDATA[
    .str0 {stroke:#2B2A29;stroke-width:0.31;stroke-miterlimit:22.9256}
    .fil0 {fill:#fff}
   ]]>
  </style>
 </defs>
 <g id="Слой_x0020_1">
  <metadata id="CorelCorpID_0Corel-Layer"/>
  <path class="fil0 str0" d="M11.77 15.19c0.19,-0.09 0.36,-0.19 0.53,-0.3 0.17,-0.11 0.35,-0.14 0.54,-0.08l3.88 1.13c0.29,0.09 0.59,-0.03 0.74,-0.3l0.67 -1.15c0.15,-0.26 0.1,-0.58 -0.11,-0.79l-2.93 -2.79c-0.14,-0.14 -0.21,-0.31 -0.2,-0.51 0.01,-0.1 0.01,-0.2 0.01,-0.3 0,-0.11 0,-0.21 -0.01,-0.31 -0.01,-0.19 0.06,-0.37 0.2,-0.5l2.93 -2.8c0.21,-0.21 0.26,-0.53 0.11,-0.79l-0.67 -1.15c-0.15,-0.26 -0.45,-0.38 -0.74,-0.3l-3.88 1.14c-0.19,0.05 -0.37,0.02 -0.54,-0.08 -0.17,-0.11 -0.34,-0.22 -0.53,-0.31 -0.17,-0.09 -0.29,-0.23 -0.33,-0.42l-0.96 -3.93c-0.07,-0.3 -0.33,-0.5 -0.63,-0.5l-1.33 0c-0.3,0 -0.56,0.2 -0.63,0.5l-0.96 3.93c-0.04,0.19 -0.16,0.33 -0.33,0.42 -0.19,0.09 -0.36,0.2 -0.53,0.31 -0.17,0.1 -0.35,0.13 -0.54,0.08l-3.88 -1.14c-0.29,-0.08 -0.59,0.04 -0.75,0.3l-0.66 1.15c-0.15,0.26 -0.1,0.58 0.11,0.79l2.93 2.8c0.14,0.13 0.21,0.31 0.2,0.5 -0.01,0.1 -0.01,0.2 -0.01,0.31 0,0.1 0,0.2 0.01,0.3 0.01,0.2 -0.06,0.37 -0.2,0.51l-2.93 2.79c-0.21,0.21 -0.26,0.53 -0.11,0.79l0.66 1.15c0.16,0.27 0.46,0.39 0.75,0.3l3.88 -1.13c0.19,-0.06 0.37,-0.03 0.54,0.08 0.17,0.11 0.34,0.21 0.53,0.3 0.17,0.09 0.29,0.24 0.33,0.43l0.96 3.93c0.07,0.29 0.33,0.49 0.63,0.49l1.33 0c0.3,0 0.56,-0.2 0.63,-0.49l0.96 -3.93c0.04,-0.19 0.16,-0.34 0.33,-0.43zm-2.59 -1.27c2.11,0 3.82,-1.71 3.82,-3.82 0,-2.11 -1.71,-3.82 -3.82,-3.82 -2.1,0 -3.81,1.71 -3.81,3.82 0,2.11 1.71,3.82 3.81,3.82z"/>
 </g>
</svg>
