<?xml version="1.0" encoding="UTF-8"?>
<svg xmlns="http://www.w3.org/2000/svg" width="50px" height="50px" viewBox="0 0 2359.37 2359.37">
  <style type="text/css">
    .str0 {stroke:#088DCD;stroke-width:133.17;stroke-miterlimit:2.61313}
    .fil0 {fill:none}
  </style>
  <path class="fil0 str0" d="M1179.7 442.39l0 -442.39m521.34 658.33l312.8 -312.8m-96.85 834.16l442.38 0m-658.33 521.35l312.8 312.8m-834.15 -96.85l0 442.38m-521.36 -658.33l-312.8 312.8m96.86 -834.15l-442.39 0m658.34 -521.35l-312.81 -312.81m834.16 1338.16c278.35,0 504,-225.65 504,-504 0,-278.35 -225.65,-504.01 -504,-504.01 -278.35,0 -504.01,225.66 -504.01,504.01 0,278.35 225.66,504 504.01,504z"/>
</svg>
