<?xml version="1.0" encoding="UTF-8"?><svg xmlns="http://www.w3.org/2000/svg" width="150px" height="150px" style="shape-rendering:geometricPrecision; text-rendering:geometricPrecision; image-rendering:optimizeQuality; fill-rule:evenodd; clip-rule:evenodd" viewBox="0 0 150 150">
  <style type="text/css">
    .fil0 {fill:#262C40;fill-rule:nonzero}
  </style>
 <g>
  <path class="fil0" d="M0 150l150 0 0 -150 -150 0 0 150zm100.75 -32.81c3.03,4.93 6.97,8.56 13.91,8.56 5.84,0 9.59,-2.91 9.59,-6.97 0,-4.81 -3.84,-6.53 -10.28,-9.34l-3.53 -1.5c-10.16,-4.35 -16.91,-9.78 -16.91,-21.25 0,-10.56 8.06,-18.63 20.63,-18.63 8.97,0 15.4,3.13 20.06,11.28l-10.97 7.07c-2.44,-4.35 -5.03,-6.03 -9.09,-6.03 -4.13,0 -6.75,2.59 -6.75,6.03 0,4.22 2.62,5.93 8.68,8.56l3.53 1.5c11.97,5.12 18.72,10.37 18.72,22.16 0,12.68 -9.96,19.62 -23.34,19.62 -13.09,0 -21.56,-6.22 -25.69,-14.4l11.44 -6.66 0 0zm-49.78 1.22c2.22,3.93 4.22,7.25 9.06,7.25 4.63,0 7.56,-1.82 7.56,-8.85l0 -47.94 14.1 0 0 48.13c0,14.59 -8.56,21.22 -21.06,21.22 -11.28,0 -17.82,-5.81 -21.13,-12.88l11.47 -6.93 0 0z"/>
 </g>
</svg>
